<?xml version="1.0" encoding="utf-8"?>
<!-- Generator: Adobe Illustrator 14.0.0, SVG Export Plug-In . SVG Version: 6.00 Build 43363)  -->
<!DOCTYPE svg PUBLIC "-//W3C//DTD SVG 1.1//EN" "http://www.w3.org/Graphics/SVG/1.1/DTD/svg11.dtd">
<svg version="1.1" id="Layer_1" xmlns="http://www.w3.org/2000/svg" xmlns:xlink="http://www.w3.org/1999/xlink" x="0px" y="0px"
	 width="230.026px" height="26px" viewBox="0 0 230.026 26" enable-background="new 0 0 230.026 26" xml:space="preserve">
<path d="M13.209,25.338l-5.357-9.794H5.821v9.794H0V0.662h9.411c1.185,0,2.34,0.122,3.468,0.366
	c1.125,0.245,2.136,0.657,3.032,1.237c0.894,0.582,1.608,1.348,2.144,2.301c0.534,0.953,0.801,2.138,0.801,3.555
	c0,1.672-0.452,3.079-1.358,4.218c-0.906,1.138-2.162,1.95-3.764,2.44l6.448,10.56H13.209z M12.965,8.225
	c0-0.581-0.123-1.051-0.368-1.412c-0.245-0.359-0.561-0.639-0.946-0.836c-0.385-0.197-0.818-0.331-1.296-0.401
	C9.877,5.507,9.416,5.472,8.972,5.472H5.785v5.75h2.837c0.49,0,0.992-0.041,1.507-0.122c0.513-0.082,0.98-0.227,1.399-0.435
	c0.421-0.21,0.765-0.511,1.034-0.907C12.831,9.363,12.965,8.853,12.965,8.225z M47.853,12.896c0,1.951-0.336,3.734-1.011,5.349
	c-0.673,1.615-1.609,2.999-2.806,4.148c-1.196,1.15-2.62,2.039-4.269,2.666C38.117,25.687,36.328,26,34.4,26
	c-1.929,0-3.712-0.313-5.35-0.941s-3.056-1.516-4.252-2.666c-1.196-1.15-2.132-2.533-2.806-4.148
	c-0.674-1.615-1.011-3.397-1.011-5.349c0-1.976,0.336-3.759,1.011-5.351c0.674-1.591,1.609-2.945,2.806-4.061
	s2.615-1.974,4.252-2.579C30.688,0.302,32.471,0,34.4,0c1.928,0,3.717,0.302,5.368,0.906c1.649,0.605,3.073,1.464,4.269,2.579
	c1.197,1.115,2.132,2.469,2.806,4.061C47.517,9.137,47.853,10.92,47.853,12.896z M41.476,12.896c0-1.07-0.174-2.068-0.523-2.998
	c-0.349-0.929-0.832-1.726-1.446-2.388c-0.617-0.662-1.359-1.184-2.231-1.567c-0.871-0.383-1.83-0.576-2.875-0.576
	c-1.046,0-1.998,0.192-2.858,0.576c-0.859,0.383-1.603,0.905-2.23,1.567c-0.627,0.662-1.11,1.459-1.447,2.388
	c-0.337,0.93-0.505,1.928-0.505,2.998c0,1.115,0.174,2.144,0.522,3.083c0.349,0.942,0.831,1.75,1.446,2.422
	c0.616,0.674,1.354,1.204,2.213,1.586c0.86,0.383,1.812,0.574,2.858,0.574c1.045,0,1.999-0.191,2.858-0.574
	c0.859-0.383,1.603-0.912,2.23-1.586c0.627-0.673,1.115-1.48,1.464-2.422C41.301,15.04,41.476,14.011,41.476,12.896z M70.194,18.158
	c0,1.347-0.267,2.48-0.801,3.397c-0.535,0.919-1.243,1.656-2.126,2.213s-1.889,0.959-3.015,1.204
	c-1.126,0.244-2.283,0.366-3.467,0.366h-9.829V0.662h9.829c0.952,0,1.929,0.099,2.928,0.296c0.999,0.199,1.905,0.535,2.719,1.011
	c0.813,0.477,1.476,1.121,1.986,1.934c0.511,0.813,0.767,1.847,0.767,3.102c0,1.371-0.371,2.504-1.115,3.397
	c-0.744,0.896-1.72,1.541-2.927,1.936v0.069c0.696,0.117,1.352,0.331,1.968,0.645c0.616,0.314,1.15,0.714,1.604,1.203
	c0.453,0.488,0.813,1.058,1.08,1.708C70.06,16.612,70.194,17.345,70.194,18.158z M63.433,7.807c0-0.837-0.32-1.445-0.959-1.83
	c-0.639-0.383-1.585-0.575-2.84-0.575h-2.928v5.088h3.207c1.115,0,1.98-0.227,2.597-0.679C63.125,9.358,63.433,8.69,63.433,7.807z
	 M64.234,17.601c0-1.022-0.384-1.731-1.15-2.126c-0.767-0.394-1.79-0.593-3.067-0.593h-3.311v5.647h3.346
	c0.465,0,0.946-0.04,1.445-0.122c0.5-0.081,0.952-0.227,1.36-0.437c0.405-0.208,0.737-0.504,0.993-0.888
	S64.234,18.205,64.234,17.601z M72.738,25.338V0.662h16.59v5.02h-10.84v4.67h10.247v4.775H78.488v5.124h11.467v5.088H72.738z
	 M106.197,25.338l-5.357-9.794h-2.032v9.794h-5.821V0.662h9.411c1.185,0,2.341,0.122,3.467,0.366
	c1.127,0.245,2.138,0.657,3.033,1.237c0.895,0.582,1.609,1.348,2.144,2.301c0.534,0.953,0.803,2.138,0.803,3.555
	c0,1.672-0.454,3.079-1.361,4.218c-0.906,1.138-2.161,1.95-3.763,2.44l6.447,10.56H106.197z M105.954,8.225
	c0-0.581-0.124-1.051-0.369-1.412c-0.245-0.359-0.56-0.639-0.945-0.836c-0.385-0.197-0.817-0.331-1.295-0.401
	c-0.479-0.068-0.94-0.104-1.384-0.104h-3.187v5.75h2.836c0.491,0,0.993-0.041,1.506-0.122c0.514-0.082,0.981-0.227,1.401-0.435
	c0.421-0.21,0.764-0.511,1.034-0.907C105.819,9.363,105.954,8.853,105.954,8.225z M127.039,5.75v19.588h-5.959V5.75h-6.971V0.662
	h19.901V5.75H127.039z M166.455,8.26c0,1.44-0.267,2.654-0.801,3.642c-0.535,0.988-1.255,1.784-2.161,2.387
	c-0.907,0.604-1.953,1.046-3.137,1.325c-1.186,0.279-2.417,0.418-3.695,0.418h-2.962v9.307h-5.96V0.662h9.061
	c1.348,0,2.609,0.134,3.783,0.401c1.172,0.268,2.196,0.697,3.066,1.29c0.872,0.593,1.557,1.372,2.057,2.334
	C166.206,5.652,166.455,6.843,166.455,8.26z M160.495,8.295c0-0.581-0.116-1.057-0.349-1.429c-0.232-0.371-0.546-0.662-0.941-0.872
	c-0.396-0.208-0.842-0.348-1.342-0.418c-0.5-0.068-1.016-0.104-1.55-0.104h-2.614v5.82h2.509c0.558,0,1.091-0.045,1.604-0.139
	c0.51-0.093,0.97-0.255,1.376-0.488c0.406-0.232,0.726-0.541,0.958-0.924C160.379,9.358,160.495,8.875,160.495,8.295z
	 M183.29,25.338l-1.917-4.846h-9.55l-1.813,4.846h-6.482l10.351-24.677h5.786l10.248,24.677H183.29z M176.667,7.249l-3.136,8.469
	h6.204L176.667,7.249z M210.526,20.092c-0.5,1.221-1.214,2.266-2.143,3.137c-0.93,0.872-2.051,1.551-3.364,2.039
	c-1.313,0.49-2.771,0.732-4.373,0.732c-1.628,0-3.091-0.243-4.393-0.732c-1.301-0.487-2.405-1.167-3.311-2.039
	c-0.907-0.871-1.604-1.916-2.092-3.137c-0.488-1.219-0.732-2.573-0.732-4.061V0.662h5.925v14.882c0,0.674,0.088,1.313,0.262,1.917
	c0.174,0.604,0.441,1.145,0.801,1.621c0.36,0.476,0.836,0.854,1.429,1.133c0.593,0.278,1.307,0.418,2.144,0.418
	c0.837,0,1.551-0.141,2.145-0.418c0.592-0.279,1.074-0.657,1.445-1.133c0.372-0.477,0.639-1.017,0.802-1.621
	c0.163-0.604,0.244-1.243,0.244-1.917V0.662h5.959v15.37C211.275,17.52,211.026,18.873,210.526,20.092z M214.482,25.338V0.662h5.995
	v19.484h9.55v5.192H214.482z"/>
</svg>
