<svg xmlns="http://www.w3.org/2000/svg" width="16" height="16"  xmlns:v="https://vecta.io/nano"><path d="M11.102 1.306c1.984 0 3.593 1.608 3.593 3.592v6.204c0 1.984-1.608 3.593-3.593 3.593H4.898c-1.983 0-3.592-1.608-3.592-3.593V4.898c0-1.983 1.608-3.592 3.592-3.592h6.204m0-1.306H4.898C2.196.008.008 2.196 0 4.898v6.204c.008 2.702 2.196 4.89 4.898 4.898h6.204c2.702-.008 4.891-2.196 4.898-4.898V4.898C15.992 2.196 13.804.008 11.102 0zm1.166 2.775c-.517 0-.936.419-.936.936s.419.936.936.936.937-.419.937-.936a.94.94 0 0 0-.937-.936h0zM8.043 5.138a2.89 2.89 0 0 1 2.89 2.885c.001 1.594-1.291 2.888-2.886 2.888S5.16 9.62 5.16 8.026a2.89 2.89 0 0 1 2.883-2.888m0-1.306c-2.314.004-4.188 1.885-4.183 4.201s1.885 4.189 4.202 4.184 4.184-1.88 4.184-4.194-1.879-4.192-4.194-4.191z" fill="#ffffff" /></svg>