<svg xmlns="http://www.w3.org/2000/svg" width="32" height="32">
	<circle fill-rule="evenodd" fill="#e61a23" cx="16" cy="16" r="16"></circle>
	<path fill="#fff" d="M24 17.86c0 1.56-1.243 2.824-2.776 2.824h-4.196c-.175 0-.317-.142-.317-.317v-8.71c0-.176.142-.317.317-.317h3.57a2.59 2.59 0 0 1 2.589 2.595c0 .604-.207 1.16-.553 1.603.817.446 1.367 1.286 1.367 2.323zm-8.22 2.284l-2.372-3.128c.975-.502 1.642-1.515 1.642-2.684 0-1.667-1.355-3.02-3.026-3.02H8.318l-.024.026a.32.32 0 0 0-.294.317v8.71c0 .176.143.317.318.317h7.237c.176 0 .318-.142.318-.317.001-.087-.035-.167-.093-.223z"></path>
</svg>